<?xml version="1.0" standalone="no"?>
<!DOCTYPE svg PUBLIC "-//W3C//DTD SVG 20010904//EN"
 "http://www.w3.org/TR/2001/REC-SVG-20010904/DTD/svg10.dtd">
<svg version="1.0" xmlns="http://www.w3.org/2000/svg"
 width="22.000000pt" height="19.000000pt" viewBox="0 0 22.000000 19.000000"
 preserveAspectRatio="xMidYMid meet">

<g transform="translate(0.000000,19.000000) scale(0.100000,-0.100000)"
fill="#000000" stroke="none">
<path d="M17 172 c-29 -32 -20 -61 37 -120 l54 -57 56 56 c65 65 72 98 30 126
-22 14 -31 15 -56 5 -20 -7 -37 -8 -49 -2 -27 15 -54 12 -72 -8z m79 -14 c7
-5 23 -2 39 6 20 11 34 12 47 5 30 -16 21 -52 -26 -98 l-44 -43 -37 28 c-20
16 -43 41 -51 56 -13 25 -13 29 6 48 19 19 40 19 66 -2z"/>
</g>
</svg>
